inDegrees=yes
name=ik_lifting_orientations
DataType=double
version=3
OpenSimVersion=4.5-2024-01-10-34fd6af
endheader
time	pelvis_tilt	pelvis_list	pelvis_rotation	pelvis_tx	pelvis_ty	pelvis_tz	hip_flexion_r	hip_adduction_r	hip_rotation_r	knee_angle_r	knee_angle_r_beta	ankle_angle_r	subtalar_angle_r	mtp_angle_r	hip_flexion_l	hip_adduction_l	hip_rotation_l	knee_angle_l	knee_angle_l_beta	ankle_angle_l	subtalar_angle_l	mtp_angle_l	lumbar_extension	lumbar_bending	lumbar_rotation	arm_flex_r	arm_add_r	arm_rot_r	elbow_flex_r	pro_sup_r	wrist_flex_r	wrist_dev_r	arm_flex_l	arm_add_l	arm_rot_l	elbow_flex_l	pro_sup_l	wrist_flex_l	wrist_dev_l
2.25	0.01156428097350524	-0.004590946747279411	-175.6264460150401	0	0.9400000003403366	0	29.11918666523342	-9.503383742844104	0	39.90014812787764	0.6963889568649162	-4.891121513127932	0	0	29.11918666523342	-9.503383742844104	0	39.90014812787764	0.6963889568649162	-4.891121513127932	0	0	0.01523419164475859	-0.0006281219217111023	0.005216413297238431	107.3715452799185	-4.621328691025035	15.20644736444591	0.07660577474422529	-27.12566196798963	0	0	0	-5.673944797856747	0	53.73726037502956	27.12545159148155	0	0
2.26	0.01579070461923833	0.002106543971538434	-175.6291657228819	0	0.9400000003403366	0	29.12289210643581	-9.503771258599816	0	39.90410140425443	0.6964579545539327	-4.891232354659842	0	0	29.12289210643581	-9.503771258599816	0	39.90410140425443	0.6964579545539327	-4.891232354659842	0	0	0.01506666997513679	0.003176980325784568	0.004667199690212286	107.5758875161236	-4.677669093034226	14.8653681864741	0.07994013672770964	-27.12103984575958	0	0	0	-5.675016609643841	0	53.74241185918674	27.12082946927212	0	0
2.27	-0.01150533406562636	0.01488417470357223	-175.6153885637694	0	0.9400000003403366	0	29.12447328949674	-9.503936374633449	0	39.9057891934799	0.6964874120329968	-4.891279558864348	0	0	29.12447328949674	-9.503936374633449	0	39.9057891934799	0.6964874120329968	-4.891279558864348	0	0	0.02541478470124357	0.02790897011176637	0.01931169148591711	107.5851241845809	-4.690936108411507	14.69785919822489	0.07600819915272282	-27.11906706028807	0	0	0	-5.67547423509994	0	53.74460992613424	27.11885668380941	0	0
2.28	-0.02294211034276817	0.01170489969519133	-175.6105835671494	0	0.9400000003403366	0	29.1255408431717	-9.504047584168765	0	39.90693054638005	0.6965073323990316	-4.891311333910811	0	0	29.1255408431717	-9.504047584168765	0	39.90693054638005	0.6965073323990316	-4.891311333910811	0	0	-0.006491667173869303	0.004862399708571382	0.01668700993727083	107.445226263306	-4.690483177891742	14.72978775099167	0.07467828888211207	-27.11773437754062	0	1.870192348449526e-64	0	-5.675783687115442	0	53.74609373645848	27.11752400106789	0	1.870192348449526e-64
2.29	-0.002166849335576488	-0.0005627966027462458	-175.6248246362353	0	0.9400000003403366	0	29.12776667688066	-9.504280303642695	0	39.90930391111608	0.696548755428026	-4.891377878318117	0	0	29.12776667688066	-9.504280303642695	0	39.90930391111608	0.696548755428026	-4.891377878318117	0	0	0.00127040859192116	0.002696830281478811	0.016967225781017	107.3996552281861	-4.630055086706432	14.69979077280741	0.08597325640352171	-27.11495818564649	0	0	0	-5.676427304761817	0	53.74918820994293	27.11474780918615	0	0
2.3	0.009516119578371748	0.005544782247612462	-175.6261930884933	0	0.9400000003403366	0	29.13067034091015	-9.504583831499886	0	39.91239984880289	0.6966027897340974	-4.891464660113967	0	0	29.13067034091015	-9.504583831499886	0	39.91239984880289	0.6966027897340974	-4.891464660113967	0	0	0.01605972926538148	0.009523361051374192	0.009823449551359354	107.4696205014181	-4.653565954704716	14.52316659967833	0.1216829675065008	-27.11133652867761	0	0	0	-5.677266948468176	0	53.75322499041592	27.11112615223341	0	0
2.31	0.004591374520440792	0.03184245668821721	-175.6209004137209	0	0.9400000003403366	0	29.13235857108437	-9.504759263474392	0	39.91420737628109	0.6966343370399123	-4.89151475282853	0	0	29.13235857108437	-9.504759263474392	0	39.91420737628109	0.6966343370399123	-4.89151475282853	0	0	0.04684373125968443	0.04703785075590848	0.01825299528043162	107.6406603380011	-4.709959950600198	14.18375146358261	0.2335617130425692	-27.10922787753859	0	0	0	-5.677757089087782	0	53.75557107799191	27.10901750110379	0	0
2.32	-0.01156519703360441	-0.004245354118199134	-175.6177899934576	0	0.9400000003403366	0	29.13687025282168	-9.505230337234273	0	39.91902024543307	0.6967183374530819	-4.891649390031635	0	0	29.13687025282168	-9.505230337234273	0	39.91902024543307	0.6967183374530819	-4.891649390031635	0	0	-0.0110943072157636	-0.006588722052849818	-0.004774129728664399	107.8147678169059	-4.849091617166783	13.70020961715776	0.7753690802372699	-27.10359932469017	0	0	0	-5.679062580494362	0	53.76184287121658	27.10338894828047	0	0
2.33	-0.005329820460282542	0.0188104650664304	-175.6103709232964	0	0.9400000003403366	0	29.26351819120914	-9.514348775834197	0	40.08516579823284	0.6996181243869841	-4.894019109750331	0	0	29.26351819120914	-9.514348775834197	0	40.08516579823284	0.6996181243869841	-4.894019109750331	0	0	-0.01079475469879765	0.03455573487845648	-0.01717962442480379	107.7770822172075	-5.174585434266155	13.08505781407469	1.980211472778189	-26.93338674935186	0	0	0	-5.723789421102834	0	53.93409598230794	26.93317637363261	0	0
2.34	-0.003579432709330405	-0.00640126004319352	-175.6198965016734	0	0.9400000003403366	0	29.27735587118153	-9.515774719643963	0	40.09990252951792	0.6998753288688904	-4.894424602840031	0	0	29.27735587118153	-9.515774719643963	0	40.09990252951792	0.6998753288688904	-4.894424602840031	0	0	-0.009480265784413635	0.00118344360899962	-0.003166556324424844	107.3021960250398	-5.606936184643071	12.49725289533895	3.350644072085788	-26.91609893143505	0	0	0	-5.727810390707064	0	53.95331464401237	26.91588855579267	0	0
2.35	-0.03408050988263895	0.008285136635248522	-175.6080874229863	0	0.9400000003403366	0	29.28821383919712	-9.516890348980896	0	40.11147426727198	0.700077293792876	-4.894741505306765	0	0	29.28821383919712	-9.516890348980896	0	40.11147426727198	0.700077293792876	-4.894741505306765	0	0	-0.04886882416895268	0.02251722628186175	-0.01812295470827173	106.8180238324533	-5.996079837053072	11.89688270644701	4.558814047264043	-26.90252825862537	0	0	0	-5.73096893846084	0	53.96839247214481	26.90231788304329	0	0
